<?xml version="1.0" standalone="no"?>
<!DOCTYPE svg PUBLIC "-//W3C//DTD SVG 20010904//EN"
 "http://www.w3.org/TR/2001/REC-SVG-20010904/DTD/svg10.dtd">
<svg version="1.0" xmlns="http://www.w3.org/2000/svg"
 width="16.000000pt" height="16.000000pt" viewBox="0 0 16.000000 16.000000"
 preserveAspectRatio="xMidYMid meet">

<g transform="translate(0.000000,16.000000) scale(0.100000,-0.100000)"
fill="#000000" stroke="none">
<path d="M42 114 c-12 -8 -20 -19 -17 -24 3 -4 -1 -10 -7 -13 -10 -3 -8 -10 6
-25 l19 -22 18 22 19 21 0 -21 c0 -15 6 -22 18 -22 24 0 62 41 45 47 -7 2 -10
10 -7 18 5 13 -23 35 -45 35 -12 0 -15 -36 -3 -43 4 -2 1 -2 -7 0 -7 2 -20 -2
-27 -8 -10 -8 -14 -8 -14 -1 0 6 7 15 16 20 9 5 15 14 13 21 -3 8 -11 6 -27
-5z"/>
</g>
</svg>
